<?xml version="1.0" standalone="no"?>
<!DOCTYPE svg PUBLIC "-//W3C//DTD SVG 20010904//EN"
 "http://www.w3.org/TR/2001/REC-SVG-20010904/DTD/svg10.dtd">
<svg version="1.0" xmlns="http://www.w3.org/2000/svg"
 width="64.000000pt" height="64.000000pt" viewBox="0 0 64.000000 64.000000"
 preserveAspectRatio="xMidYMid meet">
<metadata>
Created by potrace 1.15, written by Peter Selinger 2001-2017
</metadata>
<g transform="translate(0.000000,64.000000) scale(0.100000,-0.100000)"
fill="#000000" stroke="none">
<path d="M20 620 c-19 -19 -20 -33 -20 -300 0 -267 1 -281 20 -300 19 -19 33
-20 300 -20 267 0 281 1 300 20 19 19 20 33 20 300 0 267 -1 281 -20 300 -19
19 -33 20 -300 20 -267 0 -281 -1 -300 -20z m129 -114 c7 -8 22 -64 34 -126
l22 -112 40 124 c39 121 40 123 72 126 39 4 47 -10 88 -153 l29 -100 23 114
c12 63 28 120 34 127 18 22 67 18 74 -6 9 -27 -63 -340 -83 -362 -18 -22 -65
-23 -85 -4 -7 8 -26 57 -42 110 -16 53 -31 96 -35 96 -4 0 -19 -43 -35 -96
-16 -53 -35 -102 -42 -110 -20 -19 -67 -18 -85 4 -20 22 -92 335 -83 361 8 25
56 29 74 7z"/>
</g>
</svg>
